<?xml version="1.0" encoding="UTF-8"?>
<svg xmlns="http://www.w3.org/2000/svg" viewBox="0 0 1689 896">
  <g transform="scale(1,-1) translate(0,-896)">
    <path fill="#000000" d="M399.363 794.937c2.825 2.839 13.243 13.354 27.513 28.275 4.585 3.821 9.17 8.406 13.755 13.755s9.934 10.699 15.284 16.048c6.113 5.349 11.463 10.699 17.576 16.048s12.227 10.699 18.34 16.048c12.991 9.934 25.218 20.633 37.445 29.803 12.227 9.934 22.925 18.34 32.86 25.982 8.406 6.878 16.048 12.227 21.397 16.812h12.991c-5.349-3.821-16.048-11.463-29.803-21.397-9.934-6.878-21.397-15.284-33.624-24.454s-25.218-19.104-38.209-29.039c-6.878-5.349-12.991-9.934-19.104-15.284-6.113-4.585-11.463-9.934-17.576-15.284s-10.699-10.699-16.048-15.284c-5.349-4.585-9.934-9.17-14.519-14.519-14.917-14.266-25.43-24.682-28.272-27.51h54.254c19.869 8.406 35.916 14.519 61.134 24.454-6.878-9.17-12.227-16.812-17.576-24.454h194.866c3.057 0 6.113-3.057 6.113-6.113v-68.012c13.755 3.057 26.746 5.349 45.087 8.406-19.104-19.104-29.039-30.567-44.322-48.143v-451.63c0-3.057-3.057-6.113-6.113-6.113h-301.087c-68.012-81.003-119.976-177.29-144.43-285.803h-16.812c21.397 108.513 74.89 205.564 141.373 285.803h-150.543c-41.266-87.881-58.842-184.167-73.361-285.803h-17.576c15.284 103.164 32.86 197.922 73.361 285.803h-71.069c-3.057 0-6.113 3.057-6.113 6.113v145.958c-58.078-133.731-85.588-220.848-108.513-437.11h-16.048c12.227 152.836 48.907 327.833 124.561 466.149v385.146c0 3.057 3.057 6.113 6.113 6.113h217.791c2.293 3.821 5.349 7.642 9.17 12.227s8.406 9.934 12.991 16.048c4.585 5.349 9.934 11.463 15.284 17.576s10.699 12.227 16.812 18.34c6.113 6.113 12.227 12.227 18.34 18.34 25.218 23.69 51.964 45.851 71.833 61.899 9.934 7.642 17.576 13.755 23.69 18.34h11.463c-4.585-3.821-16.048-12.227-30.567-22.925-20.633-15.284-47.379-36.681-73.361-59.606-6.878-6.113-12.991-11.463-19.104-17.576-6.113-5.349-12.227-11.463-17.576-17.576s-10.699-12.227-15.284-17.576c-5.349-6.113-9.934-10.699-13.755-16.048-3.057-4.585-6.113-8.406-9.17-12.227h48.141zM931.998 526.71h54.257c2.293 0 3.821-1.528 3.821-4.585v-294.209c0-3.057-0.764-4.585-3.057-4.585h-54.257c-2.293 0-3.821 1.528-3.821 4.585v129.91c0 3.057-0.764 4.585-3.821 4.585h-105.457c-1.528 0-3.057-1.528-3.057-4.585v-130.675c0-3.057-0.764-4.585-3.821-4.585h-55.021c-2.293 0-3.057 1.528-3.057 4.585v294.973c0 3.057 0.764 4.585 3.057 4.585h54.257c3.057 0 3.821-1.528 3.821-4.585v-115.391c0-3.821 0.764-4.585 3.057-4.585h105.457c2.293 0 3.821 1.528 3.821 4.585v115.391c0 2.293 0.764 4.585 3.821 4.585zM1042.804 525.946h108.513c61.899 0 100.107-28.275 100.107-94.758 0-50.436-19.869-81.003-50.436-94.758 16.048-29.803 61.134-108.513 61.134-108.513v-1.528c0-2.293-0.764-3.057-3.057-3.057h-63.427c-2.293 0-3.057 1.528-5.349 3.821l-48.907 93.23c-0.764 1.528-1.528 3.821-3.821 3.821l-32.86-0.764c-1.528 0-3.057-0.764-3.057-3.821v-92.466c0-3.057-1.528-4.585-3.821-4.585h-55.021c-2.293 0-3.057 1.528-3.057 4.585v294.209c0 3.821 1.528 4.585 3.057 4.585zM1100.882 366.996c0-3.057 0.764-3.821 3.057-3.821h32.096c32.096 0 51.2 19.869 51.2 64.955 0.764 37.445-14.519 58.078-47.379 58.078h-35.916c-1.528 0-3.057-1.528-3.057-3.057v-116.155zM1298.040 525.946h161.242c3.057 0 3.821-2.293 3.821-4.585v-30.567c0-3.057-0.764-4.585-3.821-4.585h-99.343c-1.528 0-3.057-1.528-3.057-3.821v-79.475c0-3.057 1.528-3.821 3.057-3.821h64.191c3.057 0 3.821-2.293 3.821-4.585v-30.567c0-3.057-1.528-4.585-3.821-4.585h-64.191c-1.528 0-3.057-1.528-3.057-4.585v-85.588c0-3.821 0.764-4.585 3.057-4.585h106.221c2.293 0 3.057-1.528 3.057-3.821l-3.821-34.388c0-3.057-1.528-3.057-3.821-3.057h-163.534c-2.293 0-3.057 1.528-3.057 4.585v293.445c0 3.821 0.764 4.585 3.057 4.585zM1474.565 378.459c0 103.164 60.37 152.836 137.552 152.836 30.567 0 49.672-3.821 71.833-7.642 2.293-0.764 3.057-3.057 3.057-4.585v-1.528l-5.349-31.331c-0.764-3.057-1.528-3.821-3.057-3.821-0.764 0-0.764 0.764-1.528 0.764-17.576 1.528-32.096 3.057-50.436 3.057-48.907 0-87.881-22.925-87.881-108.513 0-81.767 31.331-113.863 84.824-113.863 29.039 0 33.624 2.293 58.078 4.585 3.057 0 3.821-0.764 3.821-5.349v-31.331c0-3.821-0.764-4.585-3.821-5.349-22.161-3.821-32.86-8.406-68.776-8.406-84.060 0-138.316 42.030-138.316 160.478zM685.168 958.471h12.227c-12.227-8.406-52.728-35.916-92.466-64.955-23.69-16.812-46.615-35.152-63.427-48.907-16.812-14.519-27.51-23.69-27.51-23.69s2.293 3.057 6.878 7.642c1.528 2.293 4.585 5.349 7.642 8.406s6.878 6.113 10.699 9.934c16.812 14.519 39.737 32.86 62.663 50.436 32.86 25.218 65.719 48.907 83.296 61.134z"/>
    <path fill="#eec768" d="M453.622 794.937c-9.17-3.821-18.34-8.406-29.803-12.991-18.34-28.275-26.746-42.794-42.030-71.069 34.388 16.812 51.2 25.218 86.352 40.501 11.463 17.576 19.104 29.803 29.039 43.558h-43.558zM274.804 673.432c12.991-19.869 19.104-29.039 32.86-48.143 16.812 29.039 25.218 43.558 44.322 71.833-11.463 19.869-17.576 29.803-28.275 50.436-20.633-29.039-30.567-44.322-48.907-74.125zM339.759 671.904c29.039-3.057 43.558-4.585 71.833-8.406 31.331 19.869 47.379 29.039 80.239 46.615-28.275 5.349-42.030 7.642-70.304 12.227-33.624-19.104-50.436-29.803-81.767-50.436zM655.365 711.641c-19.869-22.925-29.039-34.388-46.615-58.078 33.624 9.17 50.436 13.755 84.060 20.633 2.293 2.293 3.821 4.585 6.113 6.878v39.737c-13.755-2.293-26.746-5.349-43.558-9.17zM504.058 639.808c9.934-20.633 14.519-30.567 25.218-50.436 19.104 22.925 29.039 34.388 49.672 57.313-8.406 20.633-12.991 31.331-20.633 51.964-22.925-22.925-33.624-35.152-54.257-58.842zM196.093 584.023c15.284-18.34 22.925-27.51 38.973-45.851 12.991 30.567 19.869 45.087 35.916 74.125-14.519 19.104-21.397 28.275-34.388 48.143-17.576-30.567-25.218-45.851-40.501-76.418zM564.428 625.289c26.746-8.406 39.737-12.991 65.719-22.161 27.51 10.699 42.794 16.048 68.012 24.454v7.642c-18.34 7.642-31.331 12.227-52.728 20.633-32.86-11.463-48.907-17.576-81.003-30.567zM261.049 586.316c29.803-0.764 44.322-2.293 73.361-3.821 29.039 21.397 44.322 31.331 74.125 51.2-28.275 3.821-42.794 5.349-71.833 7.642-31.331-20.633-45.851-32.096-75.654-55.021zM420.762 573.325c12.227-19.869 18.34-29.803 31.331-48.907 15.284 24.454 23.69 36.681 42.030 60.37-11.463 19.869-16.048 29.803-26.746 50.436-19.869-24.454-29.039-36.681-46.615-61.899zM482.661 562.626c27.51-6.878 41.266-9.934 68.012-17.576 29.039 13.755 43.558 19.869 74.125 32.096-25.982 9.17-38.973 12.991-65.719 21.397-31.331-13.755-46.615-20.633-76.418-35.916zM128.082 490.793c8.406-8.406 23.69-22.925 33.624-32.86-12.227-17.576-23.69-36.681-35.152-55.021v-28.275c13.755 25.218 29.039 50.436 45.087 74.125 0 0 15.284 45.087 27.51 74.89-16.048 17.576-24.454 26.746-39.737 45.087-13.755-31.331-20.633-46.615-31.331-77.946zM345.108 501.492c14.519-19.104 21.397-28.275 36.681-46.615 12.991 25.218 19.869 37.445 34.388 62.663-13.755 19.104-19.869 29.039-32.096 48.143-16.812-25.218-24.454-38.209-38.973-64.191zM192.273 497.671c29.803 0.764 44.322 0.764 74.125 0.764 26.746 22.925 40.501 34.388 68.776 55.021-29.039 1.528-43.558 2.293-73.361 3.057-28.275-22.925-42.030-34.388-69.54-58.842zM407.771 494.614c28.275-4.585 42.030-7.642 69.54-12.991 27.51 15.284 42.030 22.925 70.304 36.681-26.746 7.642-40.501 10.699-68.012 16.812-29.039-15.284-43.558-23.69-71.833-40.501zM277.861 425.838c7.642-8.406 21.397-22.925 31.331-32.86-42.030-51.964-77.182-109.278-105.457-170.412h16.812c26.746 57.313 60.37 110.042 99.343 158.949 0 0 15.284 38.209 27.51 64.191-16.048 18.34-23.69 28.275-38.209 46.615-13.755-26.746-19.869-39.737-31.331-66.484zM339.759 423.546c29.039-3.057 42.794-4.585 71.069-8.406 26.746 16.812 39.737 25.218 66.484 40.501-27.51 5.349-42.030 7.642-70.304 12.227-27.51-16.812-41.266-25.982-67.248-44.322zM597.288 444.178c-13.755-21.397-19.869-31.331-31.331-51.964 29.039 6.878 43.558 9.17 71.833 14.519 12.227 19.869 19.104 29.803 34.388 48.907-29.803-3.821-45.087-6.113-74.89-11.463zM473.491 385.337c12.991-19.869 19.104-29.803 32.86-48.907 12.991 20.633 19.869 30.567 34.388 50.436-12.227 19.869-17.576 29.803-28.275 50.436-16.812-20.633-24.454-30.567-38.973-51.964zM531.568 368.525c25.982-9.934 38.973-14.519 64.191-24.454 25.982 9.17 38.973 12.991 65.719 20.633-24.454 11.463-36.681 16.812-61.899 28.275-27.51-9.17-41.266-14.519-68.012-24.454zM407.007 328.787c14.519-19.104 22.161-28.275 38.209-46.615 9.934 21.397 16.048 31.331 28.275 52.728-13.755 19.104-20.633 29.039-33.624 48.907-14.519-22.161-20.633-32.86-32.86-55.021zM466.613 315.796c26.746-7.642 40.501-12.227 66.484-20.633 24.454 10.699 37.445 15.284 62.663 24.454-25.218 9.934-38.209 14.519-64.955 23.69-25.982-9.934-38.973-15.284-64.191-27.51zM348.165 268.417c8.406-8.406 22.925-23.69 32.86-34.388-3.057-3.821-6.878-6.878-9.934-10.699h19.869c0 0 0 0.764 0.764 0.764 0 0 11.463 32.86 21.397 54.257-16.048 18.34-23.69 27.51-38.973 46.615-11.463-22.161-16.812-33.624-25.982-56.549zM408.535 258.483c27.51-6.113 41.266-9.17 68.776-16.048 22.925 12.227 35.152 18.34 58.842 29.039-26.746 8.406-39.737 12.227-67.248 19.869-24.454-12.227-36.681-19.104-60.37-32.86z"/>
  </g>
</svg>