<svg xmlns="http://www.w3.org/2000/svg" viewBox="0 0 400 300" fill="none">
  <rect width="400" height="300" fill="#e8edf2"/>
  <rect x="24" y="24" width="352" height="252" rx="12" fill="#dce4ec"/>
  <path
    d="M48 248 L120 248 L120 200 L280 200 L280 248 L352 248 L352 52 L48 52 Z"
    fill="#c5d0dc"
    stroke="#94a3b8"
    stroke-width="2"
  />
  <rect x="130" y="200" width="140" height="48" rx="4" fill="#b8c5d4" stroke="#64748b" stroke-width="1.5"/>
  <rect x="168" y="208" width="64" height="32" rx="2" fill="#94a3b8" opacity="0.5"/>
  <text x="200" y="225" text-anchor="middle" font-family="system-ui,sans-serif" font-size="11" fill="#475569">Entrance</text>
  <rect x="155" y="95" width="90" height="70" rx="4" fill="#d1dbe8" stroke="#64748b" stroke-width="1"/>
  <text x="200" y="135" text-anchor="middle" font-family="system-ui,sans-serif" font-size="10" fill="#475569">Reception</text>
  <ellipse cx="200" cy="72" rx="28" ry="14" fill="#cbd5e1" stroke="#64748b" stroke-width="1" stroke-dasharray="3 2"/>
  <text x="200" y="76" text-anchor="middle" font-family="system-ui,sans-serif" font-size="9" fill="#64748b">Overview</text>
  <path d="M200 86 L200 95" stroke="#64748b" stroke-width="1" stroke-dasharray="2 2"/>
  <path d="M200 165 L200 200" stroke="#64748b" stroke-width="1" stroke-dasharray="2 2"/>
  <circle cx="320" cy="230" r="18" fill="#b8c5d4" stroke="#94a3b8" stroke-width="1"/>
  <text x="320" y="234" text-anchor="middle" font-family="system-ui,sans-serif" font-size="8" fill="#64748b">P</text>
</svg>
