<?xml version="1.0" standalone="no"?>
<!DOCTYPE svg PUBLIC "-//W3C//DTD SVG 1.1//EN" "http://www.w3.org/Graphics/SVG/1.1/DTD/svg11.dtd" >
<svg xmlns="http://www.w3.org/2000/svg">
<metadata>Generated by IcoMoon</metadata>
<defs>
<font id="icofont" horiz-adv-x="1024">
<font-face units-per-em="1024" ascent="960" descent="-64" />
<missing-glyph horiz-adv-x="1024" />
<glyph unicode="&#x20;" horiz-adv-x="512" d="" />
<glyph unicode="&#xe900;" horiz-adv-x="1689" d="M399.363 794.937c2.825 2.839 13.243 13.354 27.513 28.275 4.585 3.821 9.17 8.406 13.755 13.755s9.934 10.699 15.284 16.048c6.113 5.349 11.463 10.699 17.576 16.048s12.227 10.699 18.34 16.048c12.991 9.934 25.218 20.633 37.445 29.803 12.227 9.934 22.925 18.34 32.86 25.982 8.406 6.878 16.048 12.227 21.397 16.812h12.991c-5.349-3.821-16.048-11.463-29.803-21.397-9.934-6.878-21.397-15.284-33.624-24.454s-25.218-19.104-38.209-29.039c-6.878-5.349-12.991-9.934-19.104-15.284-6.113-4.585-11.463-9.934-17.576-15.284s-10.699-10.699-16.048-15.284c-5.349-4.585-9.934-9.17-14.519-14.519-14.917-14.266-25.43-24.682-28.272-27.51h54.254c19.869 8.406 35.916 14.519 61.134 24.454-6.878-9.17-12.227-16.812-17.576-24.454h194.866c3.057 0 6.113-3.057 6.113-6.113v-68.012c13.755 3.057 26.746 5.349 45.087 8.406-19.104-19.104-29.039-30.567-44.322-48.143v-451.63c0-3.057-3.057-6.113-6.113-6.113h-301.087c-68.012-81.003-119.976-177.29-144.43-285.803h-16.812c21.397 108.513 74.89 205.564 141.373 285.803h-150.543c-41.266-87.881-58.842-184.167-73.361-285.803h-17.576c15.284 103.164 32.86 197.922 73.361 285.803h-71.069c-3.057 0-6.113 3.057-6.113 6.113v145.958c-58.078-133.731-85.588-220.848-108.513-437.11h-16.048c12.227 152.836 48.907 327.833 124.561 466.149v385.146c0 3.057 3.057 6.113 6.113 6.113h217.791c2.293 3.821 5.349 7.642 9.17 12.227s8.406 9.934 12.991 16.048c4.585 5.349 9.934 11.463 15.284 17.576s10.699 12.227 16.812 18.34c6.113 6.113 12.227 12.227 18.34 18.34 25.218 23.69 51.964 45.851 71.833 61.899 9.934 7.642 17.576 13.755 23.69 18.34h11.463c-4.585-3.821-16.048-12.227-30.567-22.925-20.633-15.284-47.379-36.681-73.361-59.606-6.878-6.113-12.991-11.463-19.104-17.576-6.113-5.349-12.227-11.463-17.576-17.576s-10.699-12.227-15.284-17.576c-5.349-6.113-9.934-10.699-13.755-16.048-3.057-4.585-6.113-8.406-9.17-12.227h48.141zM931.998 526.71h54.257c2.293 0 3.821-1.528 3.821-4.585v-294.209c0-3.057-0.764-4.585-3.057-4.585h-54.257c-2.293 0-3.821 1.528-3.821 4.585v129.91c0 3.057-0.764 4.585-3.821 4.585h-105.457c-1.528 0-3.057-1.528-3.057-4.585v-130.675c0-3.057-0.764-4.585-3.821-4.585h-55.021c-2.293 0-3.057 1.528-3.057 4.585v294.973c0 3.057 0.764 4.585 3.057 4.585h54.257c3.057 0 3.821-1.528 3.821-4.585v-115.391c0-3.821 0.764-4.585 3.057-4.585h105.457c2.293 0 3.821 1.528 3.821 4.585v115.391c0 2.293 0.764 4.585 3.821 4.585zM1042.804 525.946h108.513c61.899 0 100.107-28.275 100.107-94.758 0-50.436-19.869-81.003-50.436-94.758 16.048-29.803 61.134-108.513 61.134-108.513v-1.528c0-2.293-0.764-3.057-3.057-3.057h-63.427c-2.293 0-3.057 1.528-5.349 3.821l-48.907 93.23c-0.764 1.528-1.528 3.821-3.821 3.821l-32.86-0.764c-1.528 0-3.057-0.764-3.057-3.821v-92.466c0-3.057-1.528-4.585-3.821-4.585h-55.021c-2.293 0-3.057 1.528-3.057 4.585v294.209c0 3.821 1.528 4.585 3.057 4.585zM1100.882 366.996c0-3.057 0.764-3.821 3.057-3.821h32.096c32.096 0 51.2 19.869 51.2 64.955 0.764 37.445-14.519 58.078-47.379 58.078h-35.916c-1.528 0-3.057-1.528-3.057-3.057v-116.155zM1298.040 525.946h161.242c3.057 0 3.821-2.293 3.821-4.585v-30.567c0-3.057-0.764-4.585-3.821-4.585h-99.343c-1.528 0-3.057-1.528-3.057-3.821v-79.475c0-3.057 1.528-3.821 3.057-3.821h64.191c3.057 0 3.821-2.293 3.821-4.585v-30.567c0-3.057-1.528-4.585-3.821-4.585h-64.191c-1.528 0-3.057-1.528-3.057-4.585v-85.588c0-3.821 0.764-4.585 3.057-4.585h106.221c2.293 0 3.057-1.528 3.057-3.821l-3.821-34.388c0-3.057-1.528-3.057-3.821-3.057h-163.534c-2.293 0-3.057 1.528-3.057 4.585v293.445c0 3.821 0.764 4.585 3.057 4.585zM1474.565 378.459c0 103.164 60.37 152.836 137.552 152.836 30.567 0 49.672-3.821 71.833-7.642 2.293-0.764 3.057-3.057 3.057-4.585v-1.528l-5.349-31.331c-0.764-3.057-1.528-3.821-3.057-3.821-0.764 0-0.764 0.764-1.528 0.764-17.576 1.528-32.096 3.057-50.436 3.057-48.907 0-87.881-22.925-87.881-108.513 0-81.767 31.331-113.863 84.824-113.863 29.039 0 33.624 2.293 58.078 4.585 3.057 0 3.821-0.764 3.821-5.349v-31.331c0-3.821-0.764-4.585-3.821-5.349-22.161-3.821-32.86-8.406-68.776-8.406-84.060 0-138.316 42.030-138.316 160.478zM685.168 958.471h12.227c-12.227-8.406-52.728-35.916-92.466-64.955-23.69-16.812-46.615-35.152-63.427-48.907-16.812-14.519-27.51-23.69-27.51-23.69s2.293 3.057 6.878 7.642c1.528 2.293 4.585 5.349 7.642 8.406s6.878 6.113 10.699 9.934c16.812 14.519 39.737 32.86 62.663 50.436 32.86 25.218 65.719 48.907 83.296 61.134z" />
<glyph unicode="&#xe901;" horiz-adv-x="1689" d="M453.622 794.937c-9.17-3.821-18.34-8.406-29.803-12.991-18.34-28.275-26.746-42.794-42.030-71.069 34.388 16.812 51.2 25.218 86.352 40.501 11.463 17.576 19.104 29.803 29.039 43.558h-43.558zM274.804 673.432c12.991-19.869 19.104-29.039 32.86-48.143 16.812 29.039 25.218 43.558 44.322 71.833-11.463 19.869-17.576 29.803-28.275 50.436-20.633-29.039-30.567-44.322-48.907-74.125zM339.759 671.904c29.039-3.057 43.558-4.585 71.833-8.406 31.331 19.869 47.379 29.039 80.239 46.615-28.275 5.349-42.030 7.642-70.304 12.227-33.624-19.104-50.436-29.803-81.767-50.436zM655.365 711.641c-19.869-22.925-29.039-34.388-46.615-58.078 33.624 9.17 50.436 13.755 84.060 20.633 2.293 2.293 3.821 4.585 6.113 6.878v39.737c-13.755-2.293-26.746-5.349-43.558-9.17zM504.058 639.808c9.934-20.633 14.519-30.567 25.218-50.436 19.104 22.925 29.039 34.388 49.672 57.313-8.406 20.633-12.991 31.331-20.633 51.964-22.925-22.925-33.624-35.152-54.257-58.842zM196.093 584.023c15.284-18.34 22.925-27.51 38.973-45.851 12.991 30.567 19.869 45.087 35.916 74.125-14.519 19.104-21.397 28.275-34.388 48.143-17.576-30.567-25.218-45.851-40.501-76.418zM564.428 625.289c26.746-8.406 39.737-12.991 65.719-22.161 27.51 10.699 42.794 16.048 68.012 24.454v7.642c-18.34 7.642-31.331 12.227-52.728 20.633-32.86-11.463-48.907-17.576-81.003-30.567zM261.049 586.316c29.803-0.764 44.322-2.293 73.361-3.821 29.039 21.397 44.322 31.331 74.125 51.2-28.275 3.821-42.794 5.349-71.833 7.642-31.331-20.633-45.851-32.096-75.654-55.021zM420.762 573.325c12.227-19.869 18.34-29.803 31.331-48.907 15.284 24.454 23.69 36.681 42.030 60.37-11.463 19.869-16.048 29.803-26.746 50.436-19.869-24.454-29.039-36.681-46.615-61.899zM482.661 562.626c27.51-6.878 41.266-9.934 68.012-17.576 29.039 13.755 43.558 19.869 74.125 32.096-25.982 9.17-38.973 12.991-65.719 21.397-31.331-13.755-46.615-20.633-76.418-35.916zM128.082 490.793c8.406-8.406 23.69-22.925 33.624-32.86-12.227-17.576-23.69-36.681-35.152-55.021v-28.275c13.755 25.218 29.039 50.436 45.087 74.125 0 0 15.284 45.087 27.51 74.89-16.048 17.576-24.454 26.746-39.737 45.087-13.755-31.331-20.633-46.615-31.331-77.946zM345.108 501.492c14.519-19.104 21.397-28.275 36.681-46.615 12.991 25.218 19.869 37.445 34.388 62.663-13.755 19.104-19.869 29.039-32.096 48.143-16.812-25.218-24.454-38.209-38.973-64.191zM192.273 497.671c29.803 0.764 44.322 0.764 74.125 0.764 26.746 22.925 40.501 34.388 68.776 55.021-29.039 1.528-43.558 2.293-73.361 3.057-28.275-22.925-42.030-34.388-69.54-58.842zM407.771 494.614c28.275-4.585 42.030-7.642 69.54-12.991 27.51 15.284 42.030 22.925 70.304 36.681-26.746 7.642-40.501 10.699-68.012 16.812-29.039-15.284-43.558-23.69-71.833-40.501zM277.861 425.838c7.642-8.406 21.397-22.925 31.331-32.86-42.030-51.964-77.182-109.278-105.457-170.412h16.812c26.746 57.313 60.37 110.042 99.343 158.949 0 0 15.284 38.209 27.51 64.191-16.048 18.34-23.69 28.275-38.209 46.615-13.755-26.746-19.869-39.737-31.331-66.484zM339.759 423.546c29.039-3.057 42.794-4.585 71.069-8.406 26.746 16.812 39.737 25.218 66.484 40.501-27.51 5.349-42.030 7.642-70.304 12.227-27.51-16.812-41.266-25.982-67.248-44.322zM597.288 444.178c-13.755-21.397-19.869-31.331-31.331-51.964 29.039 6.878 43.558 9.17 71.833 14.519 12.227 19.869 19.104 29.803 34.388 48.907-29.803-3.821-45.087-6.113-74.89-11.463zM473.491 385.337c12.991-19.869 19.104-29.803 32.86-48.907 12.991 20.633 19.869 30.567 34.388 50.436-12.227 19.869-17.576 29.803-28.275 50.436-16.812-20.633-24.454-30.567-38.973-51.964zM531.568 368.525c25.982-9.934 38.973-14.519 64.191-24.454 25.982 9.17 38.973 12.991 65.719 20.633-24.454 11.463-36.681 16.812-61.899 28.275-27.51-9.17-41.266-14.519-68.012-24.454zM407.007 328.787c14.519-19.104 22.161-28.275 38.209-46.615 9.934 21.397 16.048 31.331 28.275 52.728-13.755 19.104-20.633 29.039-33.624 48.907-14.519-22.161-20.633-32.86-32.86-55.021zM466.613 315.796c26.746-7.642 40.501-12.227 66.484-20.633 24.454 10.699 37.445 15.284 62.663 24.454-25.218 9.934-38.209 14.519-64.955 23.69-25.982-9.934-38.973-15.284-64.191-27.51zM348.165 268.417c8.406-8.406 22.925-23.69 32.86-34.388-3.057-3.821-6.878-6.878-9.934-10.699h19.869c0 0 0 0.764 0.764 0.764 0 0 11.463 32.86 21.397 54.257-16.048 18.34-23.69 27.51-38.973 46.615-11.463-22.161-16.812-33.624-25.982-56.549zM408.535 258.483c27.51-6.113 41.266-9.17 68.776-16.048 22.925 12.227 35.152 18.34 58.842 29.039-26.746 8.406-39.737 12.227-67.248 19.869-24.454-12.227-36.681-19.104-60.37-32.86z" />
<glyph unicode="&#xe902;" glyph-name="next-slide-ph" horiz-adv-x="535" d="M6.115 23.128l99.855-84.191 422.914 499.273-422.914 518.853-99.855-82.233 354.386-434.662z" />
<glyph unicode="&#xe903;" glyph-name="open-doc" horiz-adv-x="843" d="M60.088 887.494v-878.989h722.824v878.989h-722.824zM60.088 947.729h722.824c33.267 0 60.235-26.968 60.235-60.235v-878.989c0-33.267-26.968-60.235-60.235-60.235h-722.824c-33.267 0-60.235 26.968-60.235 60.235v878.989c0 33.267 26.968 60.235 60.235 60.235zM210.677 375.494h451.765v-60.235h-451.765v60.235zM210.677 194.788h451.765v-60.235h-451.765v60.235zM210.677 556.2h451.765v-60.235h-451.765v60.235zM331.147 736.905h331.294v-60.235h-331.294v60.235z" />
<glyph unicode="&#xe904;" glyph-name="pdf-file" horiz-adv-x="756" d="M530.12 960l-42.669-120.476 268.641-183.24v-720.284h-756.185v1024h530.212zM153.136 535.808c28.416 0 44.476-13.653 44.476-36.547 0-25.476-18.686-40.611-48.966-40.611-8.229 0-14.196 0.371-19.061 1.482v73.464c4.115 1.1 11.946 2.212 23.551 2.212zM230.87 441.662c14.947 14.035 23.176 34.706 23.176 59.081 0 24.365-10.832 45.035-26.904 57.588-16.833 13.294-41.873 19.941-77.006 19.941-34.758 0-59.423-2.212-76.984-5.176v-245.499h56.433v88.97c5.24-0.752 11.957-1.123 19.448-1.123 33.633 0 62.401 8.14 81.837 26.217zM550.352 576.42v-248.823h57.195v100.063h90.453v45.765h-90.453v56.847h96.806v46.147h-154.001zM373.244 535.078c48.943 0 79.609-27.329 79.234-79.022 0-59.43-33.633-87.488-85.213-87.129-7.104 0-14.958 0-19.811 1.112v162.828c4.853 1.1 13.083 2.212 25.79 2.212zM513.014 457.92c0 43.924-16.436 74.565-42.578 93.753-24.301 18.111-55.331 26.599-103.16 26.599-28.791 0-56.070-1.853-77.006-5.176v-244.41c14.196-1.83 35.133-3.694 64.663-3.694 49.318 0 89.691 10.352 116.231 32.134 24.312 20.311 41.85 53.164 41.85 100.793zM585.392 960l-34.1-102.898 204.8-149.163z" />
<glyph unicode="&#xe905;" glyph-name="prev-slide-book" horiz-adv-x="467" d="M104.528 453.185l359.048-484.78-81.661-27.22-378.491 513.296 379.787 500.334 80.365-27.22z" />
<glyph unicode="&#xe906;" glyph-name="prev-slide-ph" horiz-adv-x="535" d="M528.885 23.128l-99.855-84.191-422.914 499.273 422.914 518.853 99.855-82.233-354.386-434.662z" />
<glyph unicode="&#xe907;" glyph-name="search-evt" horiz-adv-x="983" d="M738.202 539.975c0 189.235-149.504 341.975-333.087 341.975s-333.087-152.74-333.087-341.975c0-189.235 149.504-341.975 333.087-341.975s333.087 152.74 333.087 341.975zM684.23 245.968l294.448-248.344-45.67-51.323-302.319 254.993c-64.262-44.806-141.931-71-225.573-71-221.307 0-400.794 183.378-400.794 409.682 0 226.345 179.487 409.723 400.794 409.723s400.794-183.378 400.794-409.723c0-115.357-46.638-219.561-121.679-294.007z" />
<glyph unicode="&#xe908;" glyph-name="arr-scroll" horiz-adv-x="3356" d="M1697.026 158.63l1556.273 801.691 91.182-177.006-1646.339-848.087-1686.623 847.636 89.41 177.908z" />
<glyph unicode="&#xe909;" glyph-name="arr-more2" horiz-adv-x="512" d="M506.731 489.767c12.474-38.351 2.618-82.589-27.608-121.065l-288.329-380.625c-38.444-57.094-108.924-69.781-160.183-25.375s-32.037 133.219 12.815 183.969l223.954 307.014-223.954 295.643c-44.851 57.094-64.073 139.563-12.815 183.969s121.739 31.719 160.183-25.375l294.736-374.281c10.264-13.549 17.331-28.455 21.201-43.873z" />
<glyph unicode="&#xe90a;" glyph-name="arr-more" horiz-adv-x="2150" d="M1085.266 433.196l622.537 447.609c115.055 79.873 292.867 119.809 387.003 19.968s62.757-239.619-52.298-319.491l-794.925-589.062c-0.068-0.021-0.135-0.043-0.203-0.064-93.944-79.353-227.734-73.348-334.503 10.038l-805.385 579.078c-115.055 69.889-146.434 209.666-52.298 309.507s282.408 59.905 397.462-19.968c70.892-49.214 281.761-195.086 632.608-437.615z" />
<glyph unicode="&#xe90b;" glyph-name="arrow-dropdown" horiz-adv-x="1955" d="M1796.701 950.691l-837.818-679.564-800.582 679.564-158.255-195.491 958.836-809.891 996.073 809.891z" />
<glyph unicode="&#xe90c;" glyph-name="calendar" horiz-adv-x="922" d="M629.396 917.538v-42.462h-336.725v42.462c0 23.347-18.773 42.462-41.677 42.462-23.108 0-41.711-19.115-41.711-42.462v-42.462h-97.792c-61.269 0-111.275-50.961-111.275-113.391v-712.294c0-62.43 50.005-113.391 111.275-113.391h699.051c61.235 0 111.241 50.961 111.241 113.391v712.294c0 62.43-50.005 113.391-111.241 113.391h-97.792v42.462c0 23.347-18.637 42.462-41.677 42.462-22.903 0-41.677-19.115-41.677-42.462zM734.185 697.31v74.035h106.121c16.589 0 30.31-14.302 30.31-31.573v-157.013h-819.2v-26.965h819.2v-531.49c0-18.807-13.722-34.406-30.31-34.406h-758.579c-16.623 0-30.31 15.599-30.31 34.406v715.469c0 17.271 13.687 31.573 30.31 31.573h106.121v-74.035c0-25.941 20.207-47.206 45.227-47.206 24.849 0 45.227 21.265 45.227 47.206v74.035h365.431v-74.035c0-25.941 20.343-47.206 45.227-47.206 24.986 0 45.227 21.265 45.227 47.206zM222.083 311.467c28.277 0 51.2 22.923 51.2 51.2s-22.923 51.2-51.2 51.2c-28.277 0-51.2-22.923-51.2-51.2s22.923-51.2 51.2-51.2zM461.016 311.467c28.277 0 51.2 22.923 51.2 51.2s-22.923 51.2-51.2 51.2c-28.277 0-51.2-22.923-51.2-51.2s22.923-51.2 51.2-51.2zM699.949 311.467c28.277 0 51.2 22.923 51.2 51.2s-22.923 51.2-51.2 51.2c-28.277 0-51.2-22.923-51.2-51.2s22.923-51.2 51.2-51.2zM222.083 106.667c28.277 0 51.2 22.923 51.2 51.2s-22.923 51.2-51.2 51.2c-28.277 0-51.2-22.923-51.2-51.2s22.923-51.2 51.2-51.2zM461.016 106.667c28.277 0 51.2 22.923 51.2 51.2s-22.923 51.2-51.2 51.2c-28.277 0-51.2-22.923-51.2-51.2s22.923-51.2 51.2-51.2zM699.949 106.667c28.277 0 51.2 22.923 51.2 51.2s-22.923 51.2-51.2 51.2c-28.277 0-51.2-22.923-51.2-51.2s22.923-51.2 51.2-51.2z" />
<glyph unicode="&#xe90d;" glyph-name="hmb-cls" horiz-adv-x="1202" d="M601 564.237l420.243 352.626c37.672 31.611 93.837 26.697 125.447-10.975s26.697-93.837-10.975-125.447l-396.188-332.441 396.188-332.441c37.672-31.611 42.586-87.775 10.975-125.447s-87.775-42.586-125.447-10.975l-420.243 352.626-420.243-352.626c-37.672-31.611-93.837-26.697-125.447 10.975s-26.697 93.837 10.975 125.447l396.188 332.441-396.188 332.441c-37.672 31.611-42.586 87.775-10.975 125.447s87.775 42.586 125.447 10.975l420.243-352.626z" />
<glyph unicode="&#xe90e;" glyph-name="hmb" horiz-adv-x="1210" d="M93 960h1024c51.413 0 93.091-41.678 93.091-93.091s-41.678-93.091-93.091-93.091h-1024c-51.413 0-93.091 41.678-93.091 93.091s41.678 93.091 93.091 93.091zM93 541.091h1024c51.413 0 93.091-41.678 93.091-93.091s-41.678-93.091-93.091-93.091h-1024c-51.413 0-93.091 41.678-93.091 93.091s41.678 93.091 93.091 93.091zM93 122.182h1024c51.413 0 93.091-41.678 93.091-93.091s-41.678-93.091-93.091-93.091h-1024c-51.413 0-93.091 41.678-93.091 93.091s41.678 93.091 93.091 93.091z" />
<glyph unicode="&#xe90f;" glyph-name="hrec" horiz-adv-x="2999" d="M754.443-35.376h-173.836c-8.338 0-13.044 4.267-13.044 14.19v415.768c0 9.996-3.56 15.653-11.947 15.653h-335.799c-6.022 0-10.728-5.632-10.728-14.263v-417.134c0-9.923-3.584-14.19-11.971-14.19h-175.006c-7.168 0-10.752 4.267-10.752 14.19v939.764c0 9.923 3.584 14.165 10.752 14.165h173.836c9.533 0 13.141-4.218 13.141-14.165v-368.835c0-11.362 3.535-15.677 10.728-15.677h335.799c8.387 0 11.947 4.315 11.947 15.677v368.835c0 8.509 3.56 14.165 11.849 14.165h173.861c8.338 0 11.947-4.218 11.947-14.165v-939.764c0-9.947-2.462-14.214-10.776-14.214zM1633.425-25.453c0-7.119-3.608-9.899-9.606-9.899h-201.289c-7.070 0-10.606 4.267-16.677 12.751l-157.086 297.57c-3.56 5.681-5.973 12.776-13.117 12.776l-106.033-1.438c-5.925 0-9.484-2.804-9.484-11.362l1.146-296.131c0-9.923-4.754-14.19-11.849-14.19h-176.274c-7.168 0-10.776 5.583-10.776 15.531v936.96c0 11.41 4.876 15.628 10.776 15.628 0 0 238.226 0 345.332 0 197.681 0 320.341-91.038 320.341-303.25 0-160.89-63.074-257.731-160.768-301.885 52.37-93.94 194.121-345.99 194.121-345.99 1.243-2.804 1.243-5.656 1.243-7.070zM1244.012 804.645h-114.347c-5.925 0-9.484-4.291-9.484-9.996v-371.566c0-8.631 2.414-11.459 10.728-11.459h101.205c102.4 0 163.109 64.049 163.109 206.507 0.024 119.637-47.592 186.514-151.211 186.514zM2281.276-25.453c-1.195-9.899-5.9-9.899-11.874-9.899h-521.63c-7.095 0-10.679 5.583-10.679 14.19v938.301c0 11.41 3.56 15.628 10.679 15.628h513.292c9.533 0 13.141-8.509 13.141-15.628v-98.255c0-8.558-1.268-14.214-11.947-14.214h-316.709c-5.973 0-10.776-4.291-10.776-12.8v-253.464c0-9.972 4.803-12.8 10.776-12.8h203.63c9.435 0 13.044-7.192 13.044-15.701v-96.89c0-9.85-4.706-14.141-11.849-14.141h-204.8c-5.973 0-10.776-5.705-10.776-14.214v-273.432c0-11.41 3.56-15.701 10.776-15.701h339.261c7.241 0 9.606-5.632 9.606-12.8l-13.166-108.178zM2972.11 804.645c-2.365-8.558-5.925-11.435-9.533-11.435-2.438 0-3.608 1.463-5.925 1.463-56.003 4.315-103.619 9.996-161.987 9.996-156.038 0-281.039-74.069-281.039-345.941 0-260.584 98.84-363.179 271.506-363.179 92.916 0 107.179 7.144 185.734 14.287 9.655 0 11.995-2.901 11.995-17.115v-99.669c0-11.41-2.365-14.214-13.117-17.067-71.534-11.337-106.008-27.063-220.379-27.063-267.874 0-440.491 135.266-440.491 511.244 0 328.826 192.853 486.912 439.32 486.912 96.475 0 158.452-11.435 228.718-24.235 8.338-2.804 10.728-8.533 10.728-14.214 0-2.877 0-4.267 0-5.681l-15.531-98.304z" />
<glyph unicode="&#xe910;" glyph-name="ico-email" horiz-adv-x="1485" d="M1361.166-64h-1237.333c-68.239 0-123.733 57.408-123.733 128v768c0 70.592 55.494 128 123.733 128h1237.333c68.239 0 123.733-57.408 123.733-128v-768c0-70.592-55.494-128-123.733-128zM742.499 281.888l542.663 363.232c14.353 9.632 18.467 29.408 9.187 44.256s-28.428 19.072-42.781 9.504l-509.070-340.768-509.070 340.768c-14.353 9.568-33.501 5.344-42.781-9.504s-5.166-34.624 9.187-44.256l542.663-363.232zM185.73 128c5.877 0 11.847 1.76 17.137 5.376l278.4 192c14.229 9.824 18.065 29.664 8.569 44.384-9.466 14.72-28.675 18.688-42.905 8.864l-278.4-192c-14.229-9.824-18.065-29.664-8.569-44.384 5.939-9.248 15.776-14.24 25.767-14.24zM1299.268 128c9.991 0 19.828 4.992 25.767 14.24 9.497 14.72 5.661 34.56-8.569 44.384l-278.4 192c-14.26 9.824-33.439 5.856-42.905-8.864-9.497-14.72-5.661-34.56 8.569-44.384l278.4-192c5.29-3.616 11.26-5.376 17.137-5.376z" />
<glyph unicode="&#xe911;" glyph-name="location" horiz-adv-x="800" d="M629.868 139.435c-84.816-112.126-183.772-203.435-229.868-203.435s-145.052 91.309-229.868 203.435c-104.989 138.795-170.132 285.415-170.132 419.869 0 215.275 181.944 400.696 400 400.696s400-185.421 400-400.696c0-134.454-65.143-281.074-170.132-419.869zM230.065 561.778c0-94.257 77.253-170.667 172.549-170.667s172.549 76.41 172.549 170.667c0 94.257-77.253 170.667-172.549 170.667s-172.549-76.41-172.549-170.667z" />
<glyph unicode="&#xe912;" glyph-name="more-photos" horiz-adv-x="1053" d="M132.149 41.326h789.323v789.943h-789.943v-789.943h0.62l0.258 789.943h920.721v-895.269h-921.014l0.034 105.326zM-0.128 960h877.714v-877.714h-877.714v877.714z" />
<glyph unicode="&#xe913;" glyph-name="phone" horiz-adv-x="869" d="M636.774 277.067c-9.010-0.682-23.617-8.288-52.61-26.748-41.439-26.413-55.207-33.845-72.975-35.428-3.797-0.338-7.612 0.423-10.98 2.191-148.896 78.171-257.863 205.989-306.283 361.849-1.71 5.505-0.873 11.476 2.287 16.312 9.85 15.073 24.062 24.24 64.188 45.872 32.629 17.59 45.672 25.97 50.105 32.798 13.937 21.281 18.911 47.117 13.853 72.016l-20.42 101.41-12.142 61.381c-7.507 33.405-40.827 54.554-76.015 47.115l-184.416-25.612c-20.985-69.271-31.291-140.707-31.291-212.506 0-403.409 325.538-741.88 743.36-778.963 5.328-0.537 10.557 1.69 13.873 5.944l98.005 124.801c10.344 12.401 15.112 28.454 13.196 44.425s-10.349 30.471-23.771 40.458l-50.071 39.429-84.284 62.283c-21.034 15.839-47.288 23.32-73.607 20.974z" />
<glyph unicode="&#xe914;" glyph-name="logo-hrec2" horiz-adv-x="1689" d="M931.998 526.71c-3.057 0-3.821-2.293-3.821-4.585v-115.391c0-3.057-1.528-4.585-3.821-4.585h-105.457c-2.293 0-3.057 0.764-3.057 4.585v115.391c0 3.057-0.764 4.585-3.821 4.585h-54.257c-2.293 0-3.057-1.528-3.057-4.585v-294.973c0-3.057 0.764-4.585 3.057-4.585h55.021c3.057 0 3.821 1.528 3.821 4.585v130.675c0 3.057 1.528 4.585 3.057 4.585h105.457c3.057 0 3.821-1.528 3.821-4.585v-129.91c0-3.057 1.528-4.585 3.821-4.585h54.257c2.293 0 3.057 1.528 3.057 4.585v294.209c0 3.057-1.528 4.585-3.821 4.585h-54.257zM1042.804 525.946c-1.528 0-3.057-0.764-3.057-4.585v-294.209c0-3.057 0.764-4.585 3.057-4.585h55.021c2.293 0 3.821 1.528 3.821 4.585v92.466c0 3.057 1.528 3.821 3.057 3.821l32.86 0.764c2.293 0 3.057-2.293 3.821-3.821l48.907-93.23c2.293-2.293 3.057-3.821 5.349-3.821h63.427c2.293 0 3.057 0.764 3.057 3.057v1.528c0 0-45.087 78.71-61.134 108.513 30.567 13.755 50.436 44.322 50.436 94.758 0 66.484-38.209 94.758-100.107 94.758h-108.513zM1100.882 366.996v116.155c0 1.528 1.528 3.057 3.057 3.057h35.916c32.86 0 48.143-20.633 47.379-58.078 0-45.087-19.104-64.955-51.2-64.955h-32.096c-2.293 0-3.057 0.764-3.057 3.821zM1298.040 525.946c-2.293 0-3.057-0.764-3.057-4.585v-293.445c0-3.057 0.764-4.585 3.057-4.585h163.534c2.293 0 3.821 0 3.821 3.057l3.821 34.388c0 2.293-0.764 3.821-3.057 3.821h-106.221c-2.293 0-3.057 0.764-3.057 4.585v85.588c0 3.057 1.528 4.585 3.057 4.585h64.191c2.293 0 3.821 1.528 3.821 4.585v30.567c0 2.293-0.764 4.585-3.821 4.585h-64.191c-1.528 0-3.057 0.764-3.057 3.821v79.475c0 2.293 1.528 3.821 3.057 3.821h99.343c3.057 0 3.821 1.528 3.821 4.585v30.567c0 2.293-0.764 4.585-3.821 4.585h-161.242zM1474.565 378.459c0-118.448 54.257-160.478 138.316-160.478 35.916 0 46.615 4.585 68.776 8.406 3.057 0.764 3.821 1.528 3.821 5.349v31.331c0 4.585-0.764 5.349-3.821 5.349-24.454-2.293-29.039-4.585-58.078-4.585-53.493 0-84.824 32.096-84.824 113.863 0 85.588 38.973 108.513 87.881 108.513 18.34 0 32.86-1.528 50.436-3.057 0.764 0 0.764-0.764 1.528-0.764 1.528 0 2.293 0.764 3.057 3.821l5.349 31.331v1.528c0 1.528-0.764 3.821-3.057 4.585-22.161 3.821-41.266 7.642-71.833 7.642-77.182 0-137.552-49.672-137.552-152.836zM518.577 958.471h11.463c-4.585-3.821-16.048-12.227-30.567-22.925-20.633-15.284-47.379-36.681-73.361-59.606-6.878-6.113-12.991-11.463-19.104-17.576-6.113-5.349-12.227-11.463-17.576-17.576s-10.699-12.227-15.284-17.576c-5.349-6.113-9.934-10.699-13.755-16.048-3.057-4.585-6.113-8.406-9.17-12.227h102.4c19.869 8.406 35.916 14.519 61.134 24.454-6.878-9.17-12.227-16.812-17.576-24.454h194.866c3.057 0 6.113-3.057 6.113-6.113v-68.012c13.755 3.057 26.746 5.349 45.087 8.406-19.104-19.104-29.039-30.567-44.322-48.143v-451.63c0-3.057-3.057-6.113-6.113-6.113h-301.087c-68.012-81.003-119.976-177.29-144.43-285.803h-16.812c21.397 108.513 74.89 205.564 141.373 285.803h-150.543c-41.266-87.881-58.842-184.167-73.361-285.803h-17.576c15.284 103.164 32.86 197.922 73.361 285.803h-71.069c-3.057 0-6.113 3.057-6.113 6.113v145.958c-58.078-133.731-85.588-220.848-108.513-437.11h-16.048c12.227 152.836 48.907 327.833 124.561 466.149v385.146c0 3.057 3.057 6.113 6.113 6.113h217.791c2.293 3.821 5.349 7.642 9.17 12.227s8.406 9.934 12.991 16.048c4.585 5.349 9.934 11.463 15.284 17.576s10.699 12.227 16.812 18.34c6.113 6.113 12.227 12.227 18.34 18.34 25.218 23.69 51.964 45.851 71.833 61.899 9.934 7.642 17.576 13.755 23.69 18.34zM453.622 794.937c-9.17-3.821-18.34-8.406-29.803-12.991-18.34-28.275-26.746-42.794-42.030-71.069 34.388 16.812 51.2 25.218 86.352 40.501 11.463 17.576 19.104 29.803 29.039 43.558h-43.558zM274.804 673.432c12.991-19.869 19.104-29.039 32.86-48.143 16.812 29.039 25.218 43.558 44.322 71.833-11.463 19.869-17.576 29.803-28.275 50.436-20.633-29.039-30.567-44.322-48.907-74.125zM339.759 671.904c29.039-3.057 43.558-4.585 71.833-8.406 31.331 19.869 47.379 29.039 80.239 46.615-28.275 5.349-42.030 7.642-70.304 12.227-33.624-19.104-50.436-29.803-81.767-50.436zM655.365 711.641c-19.869-22.925-29.039-34.388-46.615-58.078 33.624 9.17 50.436 13.755 84.060 20.633 2.293 2.293 3.821 4.585 6.113 6.878v39.737c-13.755-2.293-26.746-5.349-43.558-9.17zM504.058 639.808c9.934-20.633 14.519-30.567 25.218-50.436 19.104 22.925 29.039 34.388 49.672 57.313-8.406 20.633-12.991 31.331-20.633 51.964-22.925-22.925-33.624-35.152-54.257-58.842zM196.093 584.023c15.284-18.34 22.925-27.51 38.973-45.851 12.991 30.567 19.869 45.087 35.916 74.125-14.519 19.104-21.397 28.275-34.388 48.143-17.576-30.567-25.218-45.851-40.501-76.418zM564.428 625.289c26.746-8.406 39.737-12.991 65.719-22.161 27.51 10.699 42.794 16.048 68.012 24.454v7.642c-18.34 7.642-31.331 12.227-52.728 20.633-32.86-11.463-48.907-17.576-81.003-30.567zM261.049 586.316c29.803-0.764 44.322-2.293 73.361-3.821 29.039 21.397 44.322 31.331 74.125 51.2-28.275 3.821-42.794 5.349-71.833 7.642-31.331-20.633-45.851-32.096-75.654-55.021zM420.762 573.325c12.227-19.869 18.34-29.803 31.331-48.907 15.284 24.454 23.69 36.681 42.030 60.37-11.463 19.869-16.048 29.803-26.746 50.436-19.869-24.454-29.039-36.681-46.615-61.899zM482.661 562.626c27.51-6.878 41.266-9.934 68.012-17.576 29.039 13.755 43.558 19.869 74.125 32.096-25.982 9.17-38.973 12.991-65.719 21.397-31.331-13.755-46.615-20.633-76.418-35.916zM128.082 490.793c8.406-8.406 23.69-22.925 33.624-32.86-12.227-17.576-23.69-36.681-35.152-55.021v-28.275c13.755 25.218 29.039 50.436 45.087 74.125 0 0 15.284 45.087 27.51 74.89-16.048 17.576-24.454 26.746-39.737 45.087-13.755-31.331-20.633-46.615-31.331-77.946zM345.108 501.492c14.519-19.104 21.397-28.275 36.681-46.615 12.991 25.218 19.869 37.445 34.388 62.663-13.755 19.104-19.869 29.039-32.096 48.143-16.812-25.218-24.454-38.209-38.973-64.191zM192.273 497.671c29.803 0.764 44.322 0.764 74.125 0.764 26.746 22.925 40.501 34.388 68.776 55.021-29.039 1.528-43.558 2.293-73.361 3.057-28.275-22.925-42.030-34.388-69.54-58.842zM407.771 494.614c28.275-4.585 42.030-7.642 69.54-12.991 27.51 15.284 42.030 22.925 70.304 36.681-26.746 7.642-40.501 10.699-68.012 16.812-29.039-15.284-43.558-23.69-71.833-40.501zM277.861 425.838c7.642-8.406 21.397-22.925 31.331-32.86-42.030-51.964-77.182-109.278-105.457-170.412h16.812c26.746 57.313 60.37 110.042 99.343 158.949 0 0 15.284 38.209 27.51 64.191-16.048 18.34-23.69 28.275-38.209 46.615-13.755-26.746-19.869-39.737-31.331-66.484zM339.759 423.546c29.039-3.057 42.794-4.585 71.069-8.406 26.746 16.812 39.737 25.218 66.484 40.501-27.51 5.349-42.030 7.642-70.304 12.227-27.51-16.812-41.266-25.982-67.248-44.322zM597.288 444.178c-13.755-21.397-19.869-31.331-31.331-51.964 29.039 6.878 43.558 9.17 71.833 14.519 12.227 19.869 19.104 29.803 34.388 48.907-29.803-3.821-45.087-6.113-74.89-11.463zM473.491 385.337c12.991-19.869 19.104-29.803 32.86-48.907 12.991 20.633 19.869 30.567 34.388 50.436-12.227 19.869-17.576 29.803-28.275 50.436-16.812-20.633-24.454-30.567-38.973-51.964zM531.568 368.525c25.982-9.934 38.973-14.519 64.191-24.454 25.982 9.17 38.973 12.991 65.719 20.633-24.454 11.463-36.681 16.812-61.899 28.275-27.51-9.17-41.266-14.519-68.012-24.454zM407.007 328.787c14.519-19.104 22.161-28.275 38.209-46.615 9.934 21.397 16.048 31.331 28.275 52.728-13.755 19.104-20.633 29.039-33.624 48.907-14.519-22.161-20.633-32.86-32.86-55.021zM466.613 315.796c26.746-7.642 40.501-12.227 66.484-20.633 24.454 10.699 37.445 15.284 62.663 24.454-25.218 9.934-38.209 14.519-64.955 23.69-25.982-9.934-38.973-15.284-64.191-27.51zM348.165 268.417c8.406-8.406 22.925-23.69 32.86-34.388-3.057-3.821-6.878-6.878-9.934-10.699h19.869c0 0 0 0.764 0.764 0.764 0 0 11.463 32.86 21.397 54.257-16.048 18.34-23.69 27.51-38.973 46.615-11.463-22.161-16.812-33.624-25.982-56.549zM408.535 258.483c27.51-6.113 41.266-9.17 68.776-16.048 22.925 12.227 35.152 18.34 58.842 29.039-26.746 8.406-39.737 12.227-67.248 19.869-24.454-12.227-36.681-19.104-60.37-32.86zM583.532 957.707c-5.349-4.585-12.991-9.934-21.397-16.812-9.934-7.642-20.633-16.048-32.86-25.982-12.227-9.17-24.454-19.869-37.445-29.803-6.113-5.349-12.227-10.699-18.34-16.048s-11.463-10.699-17.576-16.048c-5.349-5.349-10.699-10.699-15.284-16.048s-9.17-9.934-13.755-13.755c-16.415-17.163-27.732-28.496-28.259-29.024 0.527 0.527 11.86 11.845 29.024 28.259 4.585 5.349 9.17 9.934 14.519 14.519s9.934 9.934 16.048 15.284c6.113 5.349 11.463 10.699 17.576 15.284 6.113 5.349 12.227 9.934 19.104 15.284 12.991 9.934 25.982 19.869 38.209 29.039s23.69 17.576 33.624 24.454c13.755 9.934 24.454 17.576 29.803 21.397h-12.991zM398.601 794.172c0 0 0.008 0.008 0.015 0.015-0.008-0.008-0.015-0.015-0.015-0.015zM685.168 958.471c-17.576-12.227-50.436-35.916-83.296-61.134-22.925-17.576-45.851-35.916-62.663-50.436-3.821-3.821-7.642-6.878-10.699-9.934s-6.113-6.113-7.642-8.406c-4.585-4.585-6.878-7.642-6.878-7.642s10.699 9.17 27.51 23.69c16.812 13.755 39.737 32.096 63.427 48.907 39.737 29.039 80.239 56.549 92.466 64.955h-12.227z" />
<glyph unicode="&#xe915;" glyph-name="dropdown" horiz-adv-x="1654" d="M81.304 898.303l-42.901-293.282 779.070-607.648 798.123 607.326-42.063 293.928-755.535-574.919z" />
<glyph unicode="&#xe916;" glyph-name="next-slide-book" horiz-adv-x="467" d="M3.424 927.595l80.365 27.22 379.787-500.334-378.491-513.296-81.661 27.22 359.048 484.78z" />
</font>
</defs>
</svg>
